<mxfile host="app.diagrams.net" agent="Mozilla/5.0 (Windows NT 10.0; Win64; x64) AppleWebKit/537.36 (KHTML, like Gecko) Chrome/128.0.0.0 Safari/537.36" version="24.7.13">
  <diagram id="C5RBs43oDa-KdzZeNtuy" name="Page-1">
    <mxGraphModel dx="792" dy="737" grid="1" gridSize="10" guides="1" tooltips="1" connect="1" arrows="1" fold="1" page="1" pageScale="1" pageWidth="827" pageHeight="1169" math="0" shadow="0">
      <root>
        <mxCell id="WIyWlLk6GJQsqaUBKTNV-0" />
        <mxCell id="WIyWlLk6GJQsqaUBKTNV-1" parent="WIyWlLk6GJQsqaUBKTNV-0" />
        <mxCell id="bb50YXfeR1t-Te1roRVX-0" style="edgeStyle=orthogonalEdgeStyle;rounded=0;orthogonalLoop=1;jettySize=auto;html=1;exitX=0.5;exitY=1;exitDx=0;exitDy=0;entryX=0.5;entryY=0;entryDx=0;entryDy=0;" edge="1" parent="WIyWlLk6GJQsqaUBKTNV-1" target="bb50YXfeR1t-Te1roRVX-3">
          <mxGeometry relative="1" as="geometry">
            <mxPoint x="130" y="160" as="sourcePoint" />
          </mxGeometry>
        </mxCell>
        <mxCell id="bb50YXfeR1t-Te1roRVX-2" style="edgeStyle=orthogonalEdgeStyle;rounded=0;orthogonalLoop=1;jettySize=auto;html=1;exitX=0.5;exitY=1;exitDx=0;exitDy=0;entryX=0.5;entryY=0;entryDx=0;entryDy=0;" edge="1" parent="WIyWlLk6GJQsqaUBKTNV-1" source="bb50YXfeR1t-Te1roRVX-3" target="bb50YXfeR1t-Te1roRVX-7">
          <mxGeometry relative="1" as="geometry" />
        </mxCell>
        <mxCell id="bb50YXfeR1t-Te1roRVX-3" value="&lt;span style=&quot;white-space: pre;&quot;&gt;&#x9;&lt;/span&gt;r8 = Address of RESULT&lt;span style=&quot;white-space: pre;&quot;&gt;&#x9;&lt;/span&gt;&lt;div&gt;&lt;span style=&quot;white-space: pre;&quot;&gt;&#x9;&lt;/span&gt;r4 =&amp;nbsp; N(List size/ Numbers)&lt;br&gt;&lt;span style=&quot;white-space: pre;&quot;&gt;&#x9;&lt;/span&gt;r5 = Addr of NUMBERS[0])&lt;br&gt;&lt;span style=&quot;white-space: pre;&quot;&gt;&#x9;&lt;/span&gt;r2 = First Number(4)&lt;/div&gt;" style="rounded=1;whiteSpace=wrap;html=1;align=left;perimeterSpacing=0;" vertex="1" parent="WIyWlLk6GJQsqaUBKTNV-1">
          <mxGeometry x="30" y="170" width="210" height="60" as="geometry" />
        </mxCell>
        <mxCell id="bb50YXfeR1t-Te1roRVX-4" value="&lt;b&gt;_start:&lt;/b&gt;" style="text;html=1;strokeColor=none;fillColor=none;align=center;verticalAlign=middle;whiteSpace=wrap;rounded=0;" vertex="1" parent="WIyWlLk6GJQsqaUBKTNV-1">
          <mxGeometry x="30" y="145" width="60" height="30" as="geometry" />
        </mxCell>
        <mxCell id="bb50YXfeR1t-Te1roRVX-5" value="&lt;b&gt;LOOP:&lt;/b&gt;" style="text;html=1;strokeColor=none;fillColor=none;align=center;verticalAlign=middle;whiteSpace=wrap;rounded=0;" vertex="1" parent="WIyWlLk6GJQsqaUBKTNV-1">
          <mxGeometry x="30" y="250" width="60" height="30" as="geometry" />
        </mxCell>
        <mxCell id="bb50YXfeR1t-Te1roRVX-6" style="edgeStyle=orthogonalEdgeStyle;rounded=0;orthogonalLoop=1;jettySize=auto;html=1;exitX=0.5;exitY=1;exitDx=0;exitDy=0;entryX=0.5;entryY=0;entryDx=0;entryDy=0;" edge="1" parent="WIyWlLk6GJQsqaUBKTNV-1" source="bb50YXfeR1t-Te1roRVX-7" target="bb50YXfeR1t-Te1roRVX-10">
          <mxGeometry relative="1" as="geometry" />
        </mxCell>
        <mxCell id="bb50YXfeR1t-Te1roRVX-7" value="&lt;span style=&quot;white-space: pre;&quot;&gt;&#x9;&lt;/span&gt;r4 = r4 - 1" style="rounded=1;whiteSpace=wrap;html=1;align=left;" vertex="1" parent="WIyWlLk6GJQsqaUBKTNV-1">
          <mxGeometry x="70" y="280" width="120" height="30" as="geometry" />
        </mxCell>
        <mxCell id="bb50YXfeR1t-Te1roRVX-8" style="edgeStyle=orthogonalEdgeStyle;rounded=0;orthogonalLoop=1;jettySize=auto;html=1;exitX=0.5;exitY=1;exitDx=0;exitDy=0;entryX=0.5;entryY=0;entryDx=0;entryDy=0;" edge="1" parent="WIyWlLk6GJQsqaUBKTNV-1" source="bb50YXfeR1t-Te1roRVX-10" target="bb50YXfeR1t-Te1roRVX-12">
          <mxGeometry relative="1" as="geometry" />
        </mxCell>
        <mxCell id="bb50YXfeR1t-Te1roRVX-9" style="edgeStyle=orthogonalEdgeStyle;rounded=0;orthogonalLoop=1;jettySize=auto;html=1;exitX=1;exitY=0.5;exitDx=0;exitDy=0;entryX=1;entryY=0.5;entryDx=0;entryDy=0;" edge="1" parent="WIyWlLk6GJQsqaUBKTNV-1" source="bb50YXfeR1t-Te1roRVX-10" target="bb50YXfeR1t-Te1roRVX-19">
          <mxGeometry relative="1" as="geometry">
            <Array as="points">
              <mxPoint x="230" y="370" />
              <mxPoint x="230" y="715" />
            </Array>
          </mxGeometry>
        </mxCell>
        <mxCell id="bb50YXfeR1t-Te1roRVX-10" value="if r4 == 0" style="rhombus;whiteSpace=wrap;html=1;" vertex="1" parent="WIyWlLk6GJQsqaUBKTNV-1">
          <mxGeometry x="70" y="330" width="120" height="80" as="geometry" />
        </mxCell>
        <mxCell id="bb50YXfeR1t-Te1roRVX-11" style="edgeStyle=orthogonalEdgeStyle;rounded=0;orthogonalLoop=1;jettySize=auto;html=1;exitX=0.5;exitY=1;exitDx=0;exitDy=0;entryX=0.5;entryY=0;entryDx=0;entryDy=0;" edge="1" parent="WIyWlLk6GJQsqaUBKTNV-1" source="bb50YXfeR1t-Te1roRVX-12" target="bb50YXfeR1t-Te1roRVX-15">
          <mxGeometry relative="1" as="geometry" />
        </mxCell>
        <mxCell id="bb50YXfeR1t-Te1roRVX-12" value="&lt;span style=&quot;white-space: pre;&quot;&gt;&#x9;&lt;/span&gt;r5 =&amp;nbsp; r5 + 4&lt;br&gt;&lt;span style=&quot;white-space: pre;&quot;&gt;&#x9;&lt;/span&gt;r6 = (r5)" style="rounded=1;whiteSpace=wrap;html=1;align=left;" vertex="1" parent="WIyWlLk6GJQsqaUBKTNV-1">
          <mxGeometry x="70" y="430" width="120" height="50" as="geometry" />
        </mxCell>
        <mxCell id="bb50YXfeR1t-Te1roRVX-13" style="edgeStyle=orthogonalEdgeStyle;rounded=0;orthogonalLoop=1;jettySize=auto;html=1;exitX=0;exitY=0.5;exitDx=0;exitDy=0;entryX=0;entryY=0.5;entryDx=0;entryDy=0;" edge="1" parent="WIyWlLk6GJQsqaUBKTNV-1" source="bb50YXfeR1t-Te1roRVX-15" target="bb50YXfeR1t-Te1roRVX-7">
          <mxGeometry relative="1" as="geometry">
            <Array as="points">
              <mxPoint x="50" y="540" />
              <mxPoint x="50" y="295" />
            </Array>
          </mxGeometry>
        </mxCell>
        <mxCell id="bb50YXfeR1t-Te1roRVX-14" style="edgeStyle=orthogonalEdgeStyle;rounded=0;orthogonalLoop=1;jettySize=auto;html=1;exitX=0.5;exitY=1;exitDx=0;exitDy=0;entryX=0.5;entryY=0;entryDx=0;entryDy=0;" edge="1" parent="WIyWlLk6GJQsqaUBKTNV-1" source="bb50YXfeR1t-Te1roRVX-15" target="bb50YXfeR1t-Te1roRVX-17">
          <mxGeometry relative="1" as="geometry" />
        </mxCell>
        <mxCell id="bb50YXfeR1t-Te1roRVX-15" value="if r2 &amp;gt;= r6" style="rhombus;whiteSpace=wrap;html=1;" vertex="1" parent="WIyWlLk6GJQsqaUBKTNV-1">
          <mxGeometry x="70" y="500" width="120" height="80" as="geometry" />
        </mxCell>
        <mxCell id="bb50YXfeR1t-Te1roRVX-16" style="edgeStyle=orthogonalEdgeStyle;rounded=0;orthogonalLoop=1;jettySize=auto;html=1;exitX=0;exitY=0.5;exitDx=0;exitDy=0;entryX=0;entryY=0.5;entryDx=0;entryDy=0;" edge="1" parent="WIyWlLk6GJQsqaUBKTNV-1" source="bb50YXfeR1t-Te1roRVX-17" target="bb50YXfeR1t-Te1roRVX-7">
          <mxGeometry relative="1" as="geometry">
            <mxPoint x="30" y="290" as="targetPoint" />
            <Array as="points">
              <mxPoint x="30" y="625" />
              <mxPoint x="30" y="295" />
            </Array>
          </mxGeometry>
        </mxCell>
        <mxCell id="bb50YXfeR1t-Te1roRVX-17" value="r2 = r6" style="rounded=1;whiteSpace=wrap;html=1;" vertex="1" parent="WIyWlLk6GJQsqaUBKTNV-1">
          <mxGeometry x="70" y="600" width="120" height="50" as="geometry" />
        </mxCell>
        <mxCell id="bb50YXfeR1t-Te1roRVX-18" value="&lt;b&gt;DONE:&lt;/b&gt;" style="text;html=1;strokeColor=none;fillColor=none;align=center;verticalAlign=middle;whiteSpace=wrap;rounded=0;" vertex="1" parent="WIyWlLk6GJQsqaUBKTNV-1">
          <mxGeometry x="30" y="660" width="60" height="30" as="geometry" />
        </mxCell>
        <mxCell id="bb50YXfeR1t-Te1roRVX-19" value="(r8) ← r2" style="rounded=1;whiteSpace=wrap;html=1;" vertex="1" parent="WIyWlLk6GJQsqaUBKTNV-1">
          <mxGeometry x="70" y="690" width="120" height="50" as="geometry" />
        </mxCell>
        <mxCell id="bb50YXfeR1t-Te1roRVX-25" style="edgeStyle=orthogonalEdgeStyle;rounded=0;orthogonalLoop=1;jettySize=auto;html=1;exitX=0.5;exitY=1;exitDx=0;exitDy=0;entryX=0.5;entryY=0;entryDx=0;entryDy=0;" edge="1" parent="WIyWlLk6GJQsqaUBKTNV-1" target="bb50YXfeR1t-Te1roRVX-48">
          <mxGeometry relative="1" as="geometry">
            <mxPoint x="750" y="300" as="sourcePoint" />
          </mxGeometry>
        </mxCell>
        <mxCell id="bb50YXfeR1t-Te1roRVX-27" value="&lt;b&gt;_start:&lt;/b&gt;" style="text;html=1;strokeColor=none;fillColor=none;align=center;verticalAlign=middle;whiteSpace=wrap;rounded=0;" vertex="1" parent="WIyWlLk6GJQsqaUBKTNV-1">
          <mxGeometry x="645" y="220" width="60" height="30" as="geometry" />
        </mxCell>
        <mxCell id="bb50YXfeR1t-Te1roRVX-28" value="&lt;b&gt;LOOP:&lt;/b&gt;" style="text;html=1;strokeColor=none;fillColor=none;align=center;verticalAlign=middle;whiteSpace=wrap;rounded=0;" vertex="1" parent="WIyWlLk6GJQsqaUBKTNV-1">
          <mxGeometry x="931" y="180" width="60" height="30" as="geometry" />
        </mxCell>
        <mxCell id="bb50YXfeR1t-Te1roRVX-29" style="edgeStyle=orthogonalEdgeStyle;rounded=0;orthogonalLoop=1;jettySize=auto;html=1;exitX=0.5;exitY=1;exitDx=0;exitDy=0;entryX=0.5;entryY=0;entryDx=0;entryDy=0;" edge="1" parent="WIyWlLk6GJQsqaUBKTNV-1" source="bb50YXfeR1t-Te1roRVX-30" target="bb50YXfeR1t-Te1roRVX-33">
          <mxGeometry relative="1" as="geometry" />
        </mxCell>
        <mxCell id="bb50YXfeR1t-Te1roRVX-30" value="&lt;span style=&quot;white-space: pre;&quot;&gt;&#x9;&lt;/span&gt;r4 ← r4 - 1" style="rounded=1;whiteSpace=wrap;html=1;align=left;gradientColor=none;" vertex="1" parent="WIyWlLk6GJQsqaUBKTNV-1">
          <mxGeometry x="971" y="210" width="120" height="30" as="geometry" />
        </mxCell>
        <mxCell id="bb50YXfeR1t-Te1roRVX-31" style="edgeStyle=orthogonalEdgeStyle;rounded=0;orthogonalLoop=1;jettySize=auto;html=1;exitX=0.5;exitY=1;exitDx=0;exitDy=0;entryX=0.5;entryY=0;entryDx=0;entryDy=0;" edge="1" parent="WIyWlLk6GJQsqaUBKTNV-1" source="bb50YXfeR1t-Te1roRVX-33" target="bb50YXfeR1t-Te1roRVX-35">
          <mxGeometry relative="1" as="geometry" />
        </mxCell>
        <mxCell id="bb50YXfeR1t-Te1roRVX-32" style="edgeStyle=orthogonalEdgeStyle;rounded=0;orthogonalLoop=1;jettySize=auto;html=1;exitX=1;exitY=0.5;exitDx=0;exitDy=0;entryX=1;entryY=0.5;entryDx=0;entryDy=0;" edge="1" parent="WIyWlLk6GJQsqaUBKTNV-1" source="bb50YXfeR1t-Te1roRVX-33" target="bb50YXfeR1t-Te1roRVX-49">
          <mxGeometry relative="1" as="geometry">
            <Array as="points">
              <mxPoint x="1130" y="300" />
              <mxPoint x="1130" y="650" />
            </Array>
          </mxGeometry>
        </mxCell>
        <mxCell id="bb50YXfeR1t-Te1roRVX-33" value="if r4 == 0" style="rhombus;whiteSpace=wrap;html=1;" vertex="1" parent="WIyWlLk6GJQsqaUBKTNV-1">
          <mxGeometry x="971" y="260" width="120" height="80" as="geometry" />
        </mxCell>
        <mxCell id="bb50YXfeR1t-Te1roRVX-34" style="edgeStyle=orthogonalEdgeStyle;rounded=0;orthogonalLoop=1;jettySize=auto;html=1;exitX=0.5;exitY=1;exitDx=0;exitDy=0;entryX=0.5;entryY=0;entryDx=0;entryDy=0;" edge="1" parent="WIyWlLk6GJQsqaUBKTNV-1" source="bb50YXfeR1t-Te1roRVX-35" target="bb50YXfeR1t-Te1roRVX-38">
          <mxGeometry relative="1" as="geometry" />
        </mxCell>
        <mxCell id="bb50YXfeR1t-Te1roRVX-35" value="&lt;span style=&quot;white-space: pre;&quot;&gt;&#x9;&lt;/span&gt;r5 ←&amp;nbsp; r5 + 4&lt;br&gt;&lt;span style=&quot;white-space: pre;&quot;&gt;&#x9;&lt;/span&gt;r6 ← (r5)" style="rounded=1;whiteSpace=wrap;html=1;align=left;" vertex="1" parent="WIyWlLk6GJQsqaUBKTNV-1">
          <mxGeometry x="971" y="360" width="120" height="50" as="geometry" />
        </mxCell>
        <mxCell id="bb50YXfeR1t-Te1roRVX-36" style="edgeStyle=orthogonalEdgeStyle;rounded=0;orthogonalLoop=1;jettySize=auto;html=1;exitX=0;exitY=0.5;exitDx=0;exitDy=0;entryX=0;entryY=0.5;entryDx=0;entryDy=0;" edge="1" parent="WIyWlLk6GJQsqaUBKTNV-1" source="bb50YXfeR1t-Te1roRVX-38" target="bb50YXfeR1t-Te1roRVX-30">
          <mxGeometry relative="1" as="geometry">
            <Array as="points">
              <mxPoint x="951" y="470" />
              <mxPoint x="951" y="225" />
            </Array>
          </mxGeometry>
        </mxCell>
        <mxCell id="bb50YXfeR1t-Te1roRVX-37" style="edgeStyle=orthogonalEdgeStyle;rounded=0;orthogonalLoop=1;jettySize=auto;html=1;exitX=0.5;exitY=1;exitDx=0;exitDy=0;entryX=0.5;entryY=0;entryDx=0;entryDy=0;" edge="1" parent="WIyWlLk6GJQsqaUBKTNV-1" source="bb50YXfeR1t-Te1roRVX-38" target="bb50YXfeR1t-Te1roRVX-40">
          <mxGeometry relative="1" as="geometry" />
        </mxCell>
        <mxCell id="bb50YXfeR1t-Te1roRVX-38" value="if r2 &amp;gt;= r6" style="rhombus;whiteSpace=wrap;html=1;" vertex="1" parent="WIyWlLk6GJQsqaUBKTNV-1">
          <mxGeometry x="971" y="430" width="120" height="80" as="geometry" />
        </mxCell>
        <mxCell id="bb50YXfeR1t-Te1roRVX-39" style="edgeStyle=orthogonalEdgeStyle;rounded=0;orthogonalLoop=1;jettySize=auto;html=1;exitX=0;exitY=0.5;exitDx=0;exitDy=0;entryX=0;entryY=0.5;entryDx=0;entryDy=0;" edge="1" parent="WIyWlLk6GJQsqaUBKTNV-1" source="bb50YXfeR1t-Te1roRVX-40" target="bb50YXfeR1t-Te1roRVX-30">
          <mxGeometry relative="1" as="geometry">
            <mxPoint x="931" y="220" as="targetPoint" />
            <Array as="points">
              <mxPoint x="931" y="555" />
              <mxPoint x="931" y="225" />
            </Array>
          </mxGeometry>
        </mxCell>
        <mxCell id="bb50YXfeR1t-Te1roRVX-40" value="r2 ← r6" style="rounded=1;whiteSpace=wrap;html=1;gradientColor=none;" vertex="1" parent="WIyWlLk6GJQsqaUBKTNV-1">
          <mxGeometry x="971" y="530" width="120" height="50" as="geometry" />
        </mxCell>
        <mxCell id="bb50YXfeR1t-Te1roRVX-41" value="&lt;b&gt;LOOP_END:&lt;/b&gt;" style="text;html=1;strokeColor=none;fillColor=none;align=center;verticalAlign=middle;whiteSpace=wrap;rounded=0;" vertex="1" parent="WIyWlLk6GJQsqaUBKTNV-1">
          <mxGeometry x="931" y="590" width="60" height="30" as="geometry" />
        </mxCell>
        <mxCell id="bb50YXfeR1t-Te1roRVX-42" value="(r8)&amp;nbsp;← r2" style="rounded=0;whiteSpace=wrap;html=1;" vertex="1" parent="WIyWlLk6GJQsqaUBKTNV-1">
          <mxGeometry x="650" y="445" width="200" height="50" as="geometry" />
        </mxCell>
        <mxCell id="bb50YXfeR1t-Te1roRVX-44" value="&lt;b&gt;LARGE:&lt;/b&gt;" style="text;html=1;strokeColor=none;fillColor=none;align=center;verticalAlign=middle;whiteSpace=wrap;rounded=0;" vertex="1" parent="WIyWlLk6GJQsqaUBKTNV-1">
          <mxGeometry x="931" y="100" width="60" height="30" as="geometry" />
        </mxCell>
        <mxCell id="bb50YXfeR1t-Te1roRVX-45" style="edgeStyle=orthogonalEdgeStyle;rounded=0;orthogonalLoop=1;jettySize=auto;html=1;exitX=0.5;exitY=1;exitDx=0;exitDy=0;entryX=0.5;entryY=0;entryDx=0;entryDy=0;" edge="1" parent="WIyWlLk6GJQsqaUBKTNV-1" source="bb50YXfeR1t-Te1roRVX-46" target="bb50YXfeR1t-Te1roRVX-30">
          <mxGeometry relative="1" as="geometry" />
        </mxCell>
        <mxCell id="bb50YXfeR1t-Te1roRVX-46" value="&lt;span style=&quot;text-align: left;&quot;&gt;r2 = First Number(4)&lt;/span&gt;" style="rounded=1;whiteSpace=wrap;html=1;" vertex="1" parent="WIyWlLk6GJQsqaUBKTNV-1">
          <mxGeometry x="961" y="130" width="140" height="40" as="geometry" />
        </mxCell>
        <mxCell id="bb50YXfeR1t-Te1roRVX-47" style="edgeStyle=orthogonalEdgeStyle;rounded=0;orthogonalLoop=1;jettySize=auto;html=1;exitX=0.5;exitY=1;exitDx=0;exitDy=0;entryX=0.5;entryY=0;entryDx=0;entryDy=0;" edge="1" parent="WIyWlLk6GJQsqaUBKTNV-1" source="bb50YXfeR1t-Te1roRVX-48" target="bb50YXfeR1t-Te1roRVX-42">
          <mxGeometry relative="1" as="geometry" />
        </mxCell>
        <mxCell id="bb50YXfeR1t-Te1roRVX-48" value="Call LARGE" style="rounded=1;whiteSpace=wrap;html=1;fontStyle=1" vertex="1" parent="WIyWlLk6GJQsqaUBKTNV-1">
          <mxGeometry x="650" y="350" width="200" height="60" as="geometry" />
        </mxCell>
        <mxCell id="bb50YXfeR1t-Te1roRVX-49" value="&lt;b&gt;RETURN&lt;br&gt;r2&lt;br&gt;&lt;/b&gt;" style="rounded=1;whiteSpace=wrap;html=1;gradientColor=none;" vertex="1" parent="WIyWlLk6GJQsqaUBKTNV-1">
          <mxGeometry x="971" y="630" width="120" height="40" as="geometry" />
        </mxCell>
        <mxCell id="bb50YXfeR1t-Te1roRVX-50" value="" style="endArrow=none;dashed=1;html=1;rounded=0;exitX=1;exitY=0;exitDx=0;exitDy=0;entryX=0;entryY=0;entryDx=0;entryDy=0;" edge="1" parent="WIyWlLk6GJQsqaUBKTNV-1" source="bb50YXfeR1t-Te1roRVX-48" target="bb50YXfeR1t-Te1roRVX-72">
          <mxGeometry width="50" height="50" relative="1" as="geometry">
            <mxPoint x="860" y="470" as="sourcePoint" />
            <mxPoint x="890" y="80" as="targetPoint" />
          </mxGeometry>
        </mxCell>
        <mxCell id="bb50YXfeR1t-Te1roRVX-51" value="" style="endArrow=none;dashed=1;html=1;rounded=0;exitX=1;exitY=1;exitDx=0;exitDy=0;entryX=0;entryY=1;entryDx=0;entryDy=0;" edge="1" parent="WIyWlLk6GJQsqaUBKTNV-1" source="bb50YXfeR1t-Te1roRVX-48" target="bb50YXfeR1t-Te1roRVX-72">
          <mxGeometry width="50" height="50" relative="1" as="geometry">
            <mxPoint x="860" y="470" as="sourcePoint" />
            <mxPoint x="890" y="680" as="targetPoint" />
          </mxGeometry>
        </mxCell>
        <mxCell id="bb50YXfeR1t-Te1roRVX-54" value="Yes" style="text;html=1;strokeColor=none;fillColor=none;align=center;verticalAlign=middle;whiteSpace=wrap;rounded=0;fontStyle=1" vertex="1" parent="WIyWlLk6GJQsqaUBKTNV-1">
          <mxGeometry x="1080" y="270" width="60" height="30" as="geometry" />
        </mxCell>
        <mxCell id="bb50YXfeR1t-Te1roRVX-55" value="Yes" style="text;html=1;strokeColor=none;fillColor=none;align=center;verticalAlign=middle;whiteSpace=wrap;rounded=0;fontStyle=1" vertex="1" parent="WIyWlLk6GJQsqaUBKTNV-1">
          <mxGeometry x="940" y="435" width="60" height="30" as="geometry" />
        </mxCell>
        <mxCell id="bb50YXfeR1t-Te1roRVX-56" value="No" style="text;html=1;strokeColor=none;fillColor=none;align=center;verticalAlign=middle;whiteSpace=wrap;rounded=0;fontStyle=1" vertex="1" parent="WIyWlLk6GJQsqaUBKTNV-1">
          <mxGeometry x="1031" y="330" width="60" height="30" as="geometry" />
        </mxCell>
        <mxCell id="bb50YXfeR1t-Te1roRVX-57" value="No" style="text;html=1;strokeColor=none;fillColor=none;align=center;verticalAlign=middle;whiteSpace=wrap;rounded=0;fontStyle=1" vertex="1" parent="WIyWlLk6GJQsqaUBKTNV-1">
          <mxGeometry x="1031" y="500" width="60" height="30" as="geometry" />
        </mxCell>
        <mxCell id="bb50YXfeR1t-Te1roRVX-58" value="No" style="text;html=1;strokeColor=none;fillColor=none;align=center;verticalAlign=middle;whiteSpace=wrap;rounded=0;fontStyle=1" vertex="1" parent="WIyWlLk6GJQsqaUBKTNV-1">
          <mxGeometry x="130" y="570" width="60" height="30" as="geometry" />
        </mxCell>
        <mxCell id="bb50YXfeR1t-Te1roRVX-59" value="No" style="text;html=1;strokeColor=none;fillColor=none;align=center;verticalAlign=middle;whiteSpace=wrap;rounded=0;fontStyle=1" vertex="1" parent="WIyWlLk6GJQsqaUBKTNV-1">
          <mxGeometry x="130" y="400" width="60" height="30" as="geometry" />
        </mxCell>
        <mxCell id="bb50YXfeR1t-Te1roRVX-60" value="Yes" style="text;html=1;strokeColor=none;fillColor=none;align=center;verticalAlign=middle;whiteSpace=wrap;rounded=0;fontStyle=1" vertex="1" parent="WIyWlLk6GJQsqaUBKTNV-1">
          <mxGeometry x="180" y="340" width="60" height="30" as="geometry" />
        </mxCell>
        <mxCell id="bb50YXfeR1t-Te1roRVX-61" value="Yes" style="text;html=1;strokeColor=none;fillColor=none;align=center;verticalAlign=middle;whiteSpace=wrap;rounded=0;fontStyle=1" vertex="1" parent="WIyWlLk6GJQsqaUBKTNV-1">
          <mxGeometry x="40" y="500" width="60" height="30" as="geometry" />
        </mxCell>
        <mxCell id="bb50YXfeR1t-Te1roRVX-63" value="&lt;span style=&quot;white-space: pre;&quot;&gt;&#x9;&lt;/span&gt;r8 = Address of RESULT&lt;span style=&quot;white-space: pre;&quot;&gt;&#x9;&lt;/span&gt;&lt;div&gt;&lt;span style=&quot;white-space: pre;&quot;&gt;&#x9;&lt;/span&gt;r4 =&amp;nbsp; N(List size/ Numbers)&lt;br&gt;&lt;span style=&quot;white-space: pre;&quot;&gt;&#x9;&lt;/span&gt;r5 = Addr of NUMBERS[0])&lt;br&gt;&lt;/div&gt;" style="rounded=1;whiteSpace=wrap;html=1;align=left;perimeterSpacing=0;" vertex="1" parent="WIyWlLk6GJQsqaUBKTNV-1">
          <mxGeometry x="645" y="250" width="210" height="50" as="geometry" />
        </mxCell>
        <mxCell id="bb50YXfeR1t-Te1roRVX-67" value="Subroutine" style="text;strokeColor=#6c8ebf;align=center;fillColor=#dae8fc;html=1;verticalAlign=middle;whiteSpace=wrap;rounded=0;" vertex="1" parent="WIyWlLk6GJQsqaUBKTNV-1">
          <mxGeometry x="990.5" y="60" width="79" height="30" as="geometry" />
        </mxCell>
        <mxCell id="bb50YXfeR1t-Te1roRVX-72" value="" style="rounded=0;whiteSpace=wrap;html=1;fillColor=none;dashed=1;" vertex="1" parent="WIyWlLk6GJQsqaUBKTNV-1">
          <mxGeometry x="900" y="90" width="260" height="590" as="geometry" />
        </mxCell>
      </root>
    </mxGraphModel>
  </diagram>
</mxfile>
